<svg id="color" height="512" viewBox="0 0 24 24" width="512" xmlns="http://www.w3.org/2000/svg"><path d="m5.5 7.25c.414 0 .75-.336.75-.75s-.336-.75-.75-.75h-2v-1.5h2c.414 0 .75-.336.75-.75s-.336-.75-.75-.75h-2.75c-.414 0-.75.336-.75.75v12.25c0 .414.336.75.75.75s.75-.336.75-.75v-2.5h2c.414 0 .75-.336.75-.75s-.336-.75-.75-.75h-2v-1.5h2c.414 0 .75-.336.75-.75s-.336-.75-.75-.75h-2v-1.5z" fill="#cfd8dc"/><path d="m10.5 0h-5c-.414 0-.75.336-.75.75v15c0 .414.336.75.75.75h5c.414 0 .75-.336.75-.75v-15c0-.414-.336-.75-.75-.75z" fill="#607d8b"/><g fill="#90a4ae"><path d="m8 12.5c0 .414.336.75.75.75h2.5v-1.5h-2.5c-.414 0-.75.336-.75.75z"/><path d="m8 9.5c0 .414.336.75.75.75h2.5v-1.5h-2.5c-.414 0-.75.336-.75.75z"/><path d="m8 6.5c0 .414.336.75.75.75h2.5v-1.5h-2.5c-.414 0-.75.336-.75.75z"/><path d="m8 3.5c0 .414.336.75.75.75h2.5v-1.5h-2.5c-.414 0-.75.336-.75.75z"/><path d="m19.032 15.222c-.14-.142-.332-.222-.532-.222h-17.75c-.414 0-.75.336-.75.75v4.5c0 .414.336.75.75.75h17.718c.412 0 .747-.333.75-.745l.032-4.5c.001-.199-.077-.392-.218-.533z"/></g><path d="m5.5 7.25c.414 0 .75-.336.75-.75s-.336-.75-.75-.75h-2v-1.5h2c.414 0 .75-.336.75-.75s-.336-.75-.75-.75h-2.75c-.414 0-.75.336-.75.75v12.25c0 .414.336.75.75.75s.75-.336.75-.75v-2.5h2c.414 0 .75-.336.75-.75s-.336-.75-.75-.75h-2v-1.5h2c.414 0 .75-.336.75-.75s-.336-.75-.75-.75h-2v-1.5z" fill="#cfd8dc"/><path d="m10.5 0h-5c-.414 0-.75.336-.75.75v15c0 .414.336.75.75.75h5c.414 0 .75-.336.75-.75v-15c0-.414-.336-.75-.75-.75z" fill="#607d8b"/><path d="m8 12.5c0 .414.336.75.75.75h2.5v-1.5h-2.5c-.414 0-.75.336-.75.75z" fill="#90a4ae"/><path d="m8 9.5c0 .414.336.75.75.75h2.5v-1.5h-2.5c-.414 0-.75.336-.75.75z" fill="#90a4ae"/><path d="m8 6.5c0 .414.336.75.75.75h2.5v-1.5h-2.5c-.414 0-.75.336-.75.75z" fill="#90a4ae"/><path d="m8 3.5c0 .414.336.75.75.75h2.5v-1.5h-2.5c-.414 0-.75.336-.75.75z" fill="#90a4ae"/><path d="m19.032 15.222c-.14-.142-.332-.222-.532-.222h-17.75c-.414 0-.75.336-.75.75v4.5c0 .414.336.75.75.75h17.718c.412 0 .747-.333.75-.745l.032-4.5c.001-.199-.077-.392-.218-.533z" fill="#90a4ae"/><path d="m4.75 2.75h-2c-.414 0-.75.336-.75.75v11.5h1.5v-1.75h1.25v-1.5h-1.25v-1.5h1.25v-1.5h-1.25v-1.5h1.25v-1.5h-1.25v-1.5h1.25z" fill="#b4bcc0"/><path d="m8 0h-2.5c-.414 0-.75.336-.75.75v2 1.5 1.5 1.5 1.5 1.5 1.5 1.5 1.75h3.25z" fill="#546d79"/><path d="m8 15h-3.25-1.25-1.5-1.25c-.414 0-.75.336-.75.75v4.5c0 .414.336.75.75.75h7.25z" fill="#7d8f97"/><path d="m23.491 11.576-5.25-1.786c-.156-.054-.326-.054-.482 0l-5.25 1.786c-.305.104-.509.389-.509.71v4.018c0 4.904 5.474 7.288 5.707 7.387.188.08.397.08.586 0 .233-.099 5.707-2.483 5.707-7.387v-4.018c0-.321-.204-.606-.509-.71z" fill="#00bcd4"/><path d="m21.286 15.368-2.75 3.5c-.351.447-1.006.512-1.437.142l-1.75-1.5c-.42-.359-.469-.991-.108-1.41.359-.419.991-.468 1.409-.108l.958.82 2.105-2.679c.341-.435.969-.511 1.404-.169.435.341.511.97.169 1.404z" fill="#fff"/><path d="m16.571 10.194-4.062 1.382c-.305.104-.509.389-.509.71v4.018c0 1.052.252 1.988.65 2.81z" fill="#00a4b9"/></svg>